<svg width="237" height="21" viewBox="0 0 237 21" fill="none" xmlns="http://www.w3.org/2000/svg">
<path d="M14.886 4.39999H11.664L8.00998 13.382L4.33799 4.39999H0.971985V17H3.40199V8.30599L6.92999 17H8.92799L12.456 8.30599V17H14.886V4.39999Z" fill="#1C1C1F"/>
<path d="M27.3755 3.57199H30.0575L27.4295 0.799988H24.8735L22.2455 3.57199H24.9275L26.1515 2.32999L27.3755 3.57199ZM26.1515 4.21999C22.4075 4.21999 19.5275 7.04599 19.5275 10.7C19.5275 14.354 22.4075 17.18 26.1515 17.18C29.8955 17.18 32.7755 14.354 32.7755 10.7C32.7755 7.04599 29.8955 4.21999 26.1515 4.21999ZM26.1515 14.822C23.9195 14.822 22.1915 13.022 22.1915 10.7C22.1915 8.37799 23.9195 6.57799 26.1515 6.57799C28.4015 6.57799 30.1115 8.37799 30.1115 10.7C30.1115 13.022 28.4015 14.822 26.1515 14.822Z" fill="#1C1C1F"/>
<path d="M44.4523 12.212C46.2163 11.672 47.2783 10.25 47.2783 8.43199C47.2783 6.12799 45.5322 4.39999 42.8322 4.39999H37.4142V17H39.9883V12.446H41.5542L44.5602 17H47.6203L44.4523 12.212ZM42.8322 6.68599C43.9123 6.68599 44.6322 7.42399 44.6322 8.43199C44.6322 9.42199 43.9123 10.16 42.8322 10.16H39.9883V6.68599H42.8322Z" fill="#1C1C1F"/>
<path d="M60.4638 17V14.714H54.6498V11.834H60.2838V9.56599H54.6498V6.68599H60.4638V4.39999H52.0758V17H60.4638Z" fill="#1C1C1F"/>
<path d="M75.9857 20.6V0.799988H73.6997V20.6H75.9857Z" fill="#1C1C1F"/>
<path d="M95.0865 17V6.68599H98.9565V4.39999H88.6605V6.68599H92.5125V17H95.0865Z" fill="#1C1C1F"/>
<path d="M113.821 17L108.709 4.39999H105.865L100.753 17H103.363L104.443 14.264H109.987L111.067 17H113.821ZM107.215 7.26199L109.087 11.978H105.343L107.215 7.26199Z" fill="#1C1C1F"/>
<path d="M126.32 17V14.714H120.506V4.39999H117.932V17H126.32Z" fill="#1C1C1F"/>
<path d="M139.101 17V14.714H133.287V11.834H138.921V9.56599H133.287V6.68599H139.101V4.39999H130.713V17H139.101Z" fill="#1C1C1F"/>
<path d="M152.574 12.734L146.382 4.39999H143.88V17H146.454V8.68399L152.646 17H155.148V4.39999H152.574V12.734Z" fill="#1C1C1F"/>
<path d="M165.793 17V6.68599H169.663V4.39999H159.367V6.68599H163.219V17H165.793Z" fill="#1C1C1F"/>
<path d="M187.962 17V6.68599H191.832V4.39999H181.536V6.68599H185.388V17H187.962Z" fill="#1C1C1F"/>
<path d="M204.428 17V14.714H198.614V11.834H204.248V9.56599H198.614V6.68599H204.428V4.39999H196.04V17H204.428Z" fill="#1C1C1F"/>
<path d="M208.777 10.7C208.777 14.354 211.657 17.18 215.401 17.18C218.335 17.18 220.441 15.416 221.287 13.526L218.911 12.608C218.317 13.85 217.039 14.822 215.401 14.822C213.169 14.822 211.441 13.022 211.441 10.7C211.441 8.37799 213.169 6.57799 215.401 6.57799C217.039 6.57799 218.317 7.54999 218.911 8.79199L221.287 7.87399C220.441 5.98399 218.335 4.21999 215.401 4.21999C211.657 4.21999 208.777 7.04599 208.777 10.7Z" fill="#1C1C1F"/>
<path d="M228.5 17V11.834H234.332V17H236.906V4.39999H234.332V9.56599H228.5V4.39999H225.926V17H228.5Z" fill="#1C1C1F"/>
</svg>
